# xmcd
#
# Track frame offsets:
#	150
#	15747
#	39752
#
# Disc length: 865 seconds
#
# Revision: 0
# Processed by: cddbd v1.5.2PL0 Copyright (c) Steve Scherf et al.
# Submitted via: audiograbber 1.83.01
#
DISCID=15035f03
DTITLE=Jacqueline - Japanese Boy
DYEAR=2008
DGENRE=Deutsch
TTITLE0=Japanese Boy (Radio Version)
TTITLE1=Japanese Boy (Extended)
TTITLE2=Japanese Boy (Disco Fox Version)
EXTD=DJ Jens
EXTT0=
EXTT1=
EXTT2=
PLAYORDER=
